# xmcd CD database file
#
# Track frame offsets:
#	150
#	22521
#	42086
#	59055
#	79829
#	99484
#	120199
#	140802
#	178985
#	198027
#	214011
#	234456
#	253745
#
# Disc length: 3634 seconds
#
# Revision: 0
# Processed by: cddbd v1.5.2PL0 Copyright (c) Steve Scherf et al.
# Submitted via: CDex 1.51
#
DISCID=ac0e300d
DTITLE=Thorogood,George and The Destroyers - The Baddest Of
DYEAR=1992
DGENRE=Blues
TTITLE0=Bad To The Bone
TTITLE1=Move It On Over
TTITLE2=I'm A Steady Rollin' Man
TTITLE3=You Talk Too Much
TTITLE4=Who Do You Love
TTITLE5=Gear Jammer
TTITLE6=I Drink Alone
TTITLE7=One Bourbon,One Scotch,One Beer
TTITLE8=If You Don't Start Drinkin' (I'm Gonna Leave)
TTITLE9=Treat Her Right
TTITLE10=Long Gone
TTITLE11=Louie To Frisco
TTITLE12=Get A Real Job
EXTD=YEAR: 1992
EXTT0=
EXTT1=
EXTT2=
EXTT3=
EXTT4=
EXTT5=
EXTT6=
EXTT7=
EXTT8=
EXTT9=
EXTT10=
EXTT11=
EXTT12=
PLAYORDER=
